<?xml version="1.0" encoding="UTF-8" standalone="no"?>
<!-- Generator: Adobe Illustrator 18.0.0, SVG Export Plug-In . SVG Version: 6.00 Build 0)  -->

<svg
   xmlns:dc="http://purl.org/dc/elements/1.1/"
   xmlns:cc="http://creativecommons.org/ns#"
   xmlns:rdf="http://www.w3.org/1999/02/22-rdf-syntax-ns#"
   xmlns:svg="http://www.w3.org/2000/svg"
   xmlns="http://www.w3.org/2000/svg"
   xmlns:sodipodi="http://sodipodi.sourceforge.net/DTD/sodipodi-0.dtd"
   xmlns:inkscape="http://www.inkscape.org/namespaces/inkscape"
   version="1.1"
   id="Layer_1"
   x="0px"
   y="0px"
   viewBox="0 0 841.9 595.3"
   enable-background="new 0 0 841.9 595.3"
   xml:space="preserve"
   inkscape:version="0.91 r13725"
   sodipodi:docname="SINP_MSU_LOGO.svg"
   inkscape:export-filename="/home/cyrkov/Victoria/KIT/poster_GRAD/SINP_MSU_LOGO.png"
   inkscape:export-xdpi="300"
   inkscape:export-ydpi="300"><metadata
     id="metadata77"><rdf:RDF><cc:Work
         rdf:about=""><dc:format>image/svg+xml</dc:format><dc:type
           rdf:resource="http://purl.org/dc/dcmitype/StillImage" /></cc:Work></rdf:RDF></metadata><defs
     id="defs75" /><sodipodi:namedview
     pagecolor="#ffffff"
     bordercolor="#666666"
     borderopacity="1"
     objecttolerance="10"
     gridtolerance="10"
     guidetolerance="10"
     inkscape:pageopacity="0"
     inkscape:pageshadow="2"
     inkscape:window-width="1335"
     inkscape:window-height="694"
     id="namedview73"
     showgrid="false"
     inkscape:zoom="0.70710678"
     inkscape:cx="389.81563"
     inkscape:cy="347.78902"
     inkscape:window-x="-3"
     inkscape:window-y="-4"
     inkscape:window-maximized="1"
     inkscape:current-layer="Layer_1" /><path
     style="opacity:0.98000004;fill:#075f9c;fill-opacity:1"
     d="M 405.30078 52.199219 C 397.70078 52.699219 390.1 53.299219 382.5 53.699219 C 338.3 56.099219 295.10078 63.899219 252.80078 76.699219 C 208.70078 89.999219 166.99922 108.60078 129.19922 135.30078 C 96.699219 158.30078 69.1 185.9 50.5 221.5 C 40.3 241.1 33.700781 261.89961 31.800781 284.09961 C 31.700781 285.39961 31.399609 286.7 31.099609 288 L 31.099609 307.69922 C 32.299609 315.39922 33.100781 323.09961 34.800781 330.59961 C 40.800781 359.09961 53.800781 384.20078 71.800781 406.80078 C 97.500781 439.20078 129.90039 463.39961 165.90039 483.09961 C 208.60039 506.39961 254.30078 521.40078 301.80078 531.30078 C 356.70078 542.70078 412.10039 545.79922 467.90039 542.19922 C 516.50039 538.99922 564.2 530.30039 610.5 514.90039 C 652.1 501.00039 691.30078 482.19961 726.80078 456.09961 C 728.70078 454.59961 730.39922 453.00039 732.19922 450.90039 C 670.39922 460.20039 618.4 442.60078 578 394.80078 C 553.4 365.80078 541.70039 331.49961 542.40039 293.59961 C 543.20039 245.99961 561.99922 206.20078 598.19922 175.30078 C 634.29922 144.50078 676.59961 133.59961 723.59961 139.09961 C 723.59961 138.69961 723.70078 138.4 723.80078 138 C 722.30078 136.8 720.90078 135.40078 719.30078 134.30078 C 682.90078 108.80078 642.89961 90.799219 600.59961 77.699219 C 564.49961 66.499219 527.50078 59.000391 489.80078 55.400391 C 476.10078 54.100391 462.29961 53.599219 448.59961 52.699219 C 447.29961 52.699219 445.89961 52.399219 444.59961 52.199219 L 405.30078 52.199219 z M 438.90039 133 L 439.19922 133.90039 C 421.59922 141.30039 403.89922 148.7 386.19922 156 C 375.59922 160.4 365 164.69961 354.5 169.09961 C 351.8 170.19961 349.59961 170.30078 347.09961 167.80078 C 377.79961 156.10078 408.40039 144.6 438.90039 133 z M 173.66797 144.69531 C 178.42776 144.76165 183.14961 148.17422 185.09961 153.69922 C 177.59961 155.79922 170.19922 157.9 162.69922 160 C 160.89922 153.5 164.30039 147.29922 170.40039 145.19922 C 171.46914 144.84297 172.56956 144.68 173.66797 144.69531 z M 245.25 149.85742 C 247.82871 149.86523 250.4125 149.9125 253 150 C 281.4 151 308.99922 156.39922 335.69922 166.19922 C 337.29922 166.69922 338.8 167.29922 341 168.19922 C 332.1 171.59922 323.79961 174.80039 315.59961 177.90039 C 295.39961 185.60039 275.10039 193.2 254.90039 201 C 252.60039 201.9 251 201.79922 249 200.19922 C 227.2 183.39922 202.30078 174.50039 174.80078 173.90039 C 154.40078 173.40039 135.10078 178.10078 116.80078 187.30078 C 90.200781 200.70078 71.200391 221.20078 59.400391 248.30078 C 54.100391 260.40078 50.899609 273.19961 50.099609 286.59961 C 48.699609 309.09961 51.6 330.5 61.5 351 C 72.7 374.1 89.599219 391.80039 111.69922 404.40039 C 141.89922 421.60039 174.20039 424.4 207.40039 415.5 C 222.70039 411.4 236.80039 403.99961 249.40039 394.09961 C 250.70039 392.99961 253.19922 392.40039 254.69922 392.90039 C 283.99922 403.40039 313.10078 414.09922 342.30078 424.69922 C 342.90078 424.89922 343.49961 425.2 344.09961 425.5 C 344.19961 426.1 344.4 426.59922 344.5 427.19922 C 330.3 431.19922 316.30078 436.19922 301.80078 439.19922 C 242.70078 451.39922 185.39922 446.19922 130.69922 419.69922 C 101.19922 405.39922 76 385.6 59 357 C 35.8 317.8 35.099219 278 58.699219 238.5 C 76.899219 208 103.99961 187.7 135.59961 173 C 142.89961 169.6 150.50039 166.90078 157.90039 163.80078 C 159.90039 162.90078 161.40078 163.10039 162.80078 164.90039 C 171.00078 175.40039 185.9 169.4 187.5 158.5 C 187.7 157.1 189.9 155.20039 191.5 154.90039 C 209.35 151.66289 227.19902 149.80273 245.25 149.85742 z M 351.28711 173.30078 C 352.17461 173.27578 353.04922 173.39922 353.69922 173.69922 C 377.59922 185.29922 399.10078 200.30078 416.30078 220.80078 C 431.60078 239.00078 441.50078 259.80039 445.30078 283.40039 C 445.60078 285.30039 445.49961 287.19961 445.59961 289.09961 L 445.59961 293.40039 C 395.39961 292.40039 345.80039 291.39961 295.90039 290.59961 C 293.70039 259.79961 282.40078 233.19922 260.80078 210.69922 C 262.10078 209.99922 262.90039 209.4 263.90039 209 C 292.20039 197.2 320.50078 185.50078 348.80078 173.80078 C 349.50078 173.50078 350.39961 173.32578 351.28711 173.30078 z M 170.16797 183.8125 C 210.90296 183.47287 243.34961 200.38438 266.59961 234 C 286.99961 263.6 292.29922 296.6 281.69922 331.5 C 281.59922 332.1 281.39922 332.59961 281.19922 333.09961 C 281.09922 333.29961 280.80039 333.5 280.40039 334 C 280.20039 333.5 279.90039 333.09922 279.90039 332.69922 C 280.70039 324.19922 276.19922 316.9 274.69922 309 C 273.99922 305.6 271 304.60078 268 306.30078 C 267 306.90078 265.80078 307.69922 265.30078 308.69922 C 262.90078 314.09922 258.89922 319 259.19922 325.5 C 259.49922 331.1 259.30078 336.6 259.30078 342.5 L 219.5 342.5 C 218.5 335.1 217.69922 334.1 213.19922 334 C 207.09922 333.9 208.90078 339 207.80078 342.5 C 206.60078 342.5 205.39922 342.59922 203.69922 342.69922 L 203.69922 299 C 201.89922 299.8 200.8 300.29961 199 301.09961 C 198.2 298.79961 197.19961 296.60078 196.59961 294.30078 C 195.39961 289.50078 194.80039 289.09922 189.90039 290.69922 C 189.90039 284.69922 189.7 278.89961 190 273.09961 C 190.4 267.59961 188.20039 263.10039 185.90039 258.40039 C 185.00039 256.50039 184.39961 254.40078 184.09961 252.30078 C 183.29961 246.70078 183.79922 240.5 181.69922 235.5 C 179.79922 231.2 178.59922 227.00039 178.19922 222.40039 C 177.69922 215.80039 177.1 209.2 177 202.5 C 177 200.8 178.60078 198.99922 179.30078 197.19922 C 179.90078 195.89922 180.80078 194.19922 180.30078 193.19922 C 179.80078 192.19922 177.89961 191.60039 176.59961 191.40039 C 174.49961 191.10039 172.19961 191.10039 170.09961 191.40039 C 168.79961 191.60039 166.7 192.29922 166.5 193.19922 C 166.1 194.49922 166.69922 196.9 167.69922 197.5 C 170.99922 199.6 170.70039 202.49922 170.90039 205.69922 C 171.40039 215.09922 169.30078 223.79922 166.30078 232.69922 C 164.40078 238.39922 164.39922 244.69961 163.19922 250.59961 C 162.59922 253.69961 161.29922 256.59961 160.19922 259.59961 C 159.29922 262.29961 157.50039 264.8 157.40039 267.5 C 157.00039 275.1 157.30078 282.79922 157.30078 290.69922 C 151.60078 289.09922 151.59922 289.10078 148.19922 300.30078 C 147.79922 300.20078 147.20078 300.2 146.80078 300 C 142.90078 298.3 142.29922 298.60078 142.19922 302.80078 C 141.99922 314.30078 142.00039 325.69922 141.90039 337.19922 L 141.90039 342.40039 C 139.10039 343.00039 136.99961 343.50039 136.59961 339.90039 C 136.39961 336.40039 135.1 333.6 131 334 C 126.7 334.4 127.60039 337.89961 127.40039 340.59961 C 127.40039 341.19961 127.29922 341.7 127.19922 342.5 L 85.599609 342.5 C 85.599609 337.5 86.300391 332.30078 85.400391 327.30078 C 84.200391 320.60078 82.100391 314 79.900391 307.5 C 78.800391 304.5 74.799219 304.80039 72.699219 307.90039 C 68.399219 314.30039 66.500391 321.59922 65.400391 329.19922 C 65.200391 330.89922 65.400391 332.70039 65.400391 334.40039 C 65.000391 334.60039 64.700781 334.70078 64.300781 334.80078 C 63.700781 333.80078 62.899609 332.90078 62.599609 331.80078 C 55.999609 310.80078 55.500391 289.7 61.400391 268.5 C 69.200391 240.7 85.199609 218.69922 109.09961 202.69922 C 126.29961 191.19922 145.29922 184.60039 166.19922 183.90039 C 167.53047 183.85352 168.85394 183.82346 170.16797 183.8125 z M 448.5 294.80078 C 472.7 295.40078 496.59961 295.99922 520.59961 296.69922 C 520.99961 296.69922 521.29922 297.70039 522.19922 298.90039 L 448.59961 298.90039 C 448.59961 297.60039 448.6 296.50078 448.5 294.80078 z M 368.80078 299.80078 L 417.69922 299.80078 L 417.69922 300.09961 L 368.80078 300.09961 L 368.80078 299.80078 z M 295.90039 301.59961 L 446.80078 301.59961 C 446.00078 306.99961 445.40039 312.29961 444.40039 317.59961 C 438.20039 349.79961 420.79922 375.09922 395.69922 395.19922 C 384.69922 403.99922 372.20078 410.99961 360.30078 418.59961 C 359.00078 419.49961 356.59961 419.69961 355.09961 419.09961 C 325.09961 406.89961 295.19922 394.49922 265.19922 382.19922 C 264.79922 381.99922 264.5 381.69961 263.5 381.09961 C 283.2 358.49961 294.40039 332.29961 295.90039 301.59961 z M 202.5 305.30078 L 202.80078 305.30078 L 202.80078 342.59961 L 202.5 342.59961 L 202.5 305.30078 z M 260.80078 322.30078 L 260.80078 344.30078 C 260.70078 337.00078 260.70078 329.60078 260.80078 322.30078 z M 86.099609 344 L 127.5 344 L 127.5 344.40039 L 86.099609 344.40039 L 86.099609 344 z M 358.36133 423.01367 C 359.42761 423.0437 360.55078 423.30078 361.80078 423.80078 C 394.30078 437.40078 426.99961 450.69961 459.59961 464.09961 C 460.99961 464.69961 462.49961 465.40039 463.59961 466.90039 C 426.39961 453.30039 389.20039 439.70039 351.40039 425.90039 C 353.94414 423.97539 356.0155 422.94761 358.36133 423.01367 z "
     id="path7" /><path
     d="m 260.7,344.3 c -13.7,0 -27.4,0 -41.1,0 0,0 0,0 0,0 13.7,0 27.5,0 41.1,0 l 0,0 z"
     id="path33"
     inkscape:connector-curvature="0"
     style="fill:#ffffff" /><path
     d="m 725.3,355.2 c -3.7,0 -7.1,0 -10.5,0 -0.7,0 -1.3,-0.1 -2.3,-0.2 0,-4.6 0,-9.1 0,-13.5 0,-4.3 0,-8.7 0,-13 -0.2,-0.1 -0.4,-0.1 -0.6,-0.2 -1.3,3.8 -2.5,7.5 -3.8,11.3 -1.1,3.2 -2.1,6.5 -3.3,9.7 -2.6,7.1 -0.6,5.5 -8.4,6 -4.5,0.3 -6.4,-1.2 -7.6,-5.5 -2.1,-7.4 -4.8,-14.7 -7.8,-21.9 0,8.9 0,17.9 0,27.1 -4.2,0 -8.4,0 -13.1,0 0,-3.9 0,-7.6 0,-11.4 -0.1,-10.4 -0.1,-20.7 -0.3,-31.1 -0.1,-3 0.9,-4.1 3.9,-4 4.8,0.1 9.6,-0.3 14.3,-0.1 1.3,0.1 3.2,1.5 3.6,2.7 2.5,7.3 4.6,14.8 7.3,23.5 1.7,-5.9 3.1,-10.7 4.5,-15.4 0.6,-2 1.4,-3.9 1.7,-5.9 0.6,-4.3 2.9,-5.4 7,-5.1 5,0.4 10.1,0.1 15.4,0.1 0,15.6 0,31 0,46.9 z m -55.9,-11 c 0.2,0 0.4,-0.1 0.5,-0.1 0,-11.3 0,-22.5 0,-33.8 1.8,-0.1 3.2,-0.2 4.7,-0.3 0,-0.1 0,-0.2 0,-0.3 -1.7,0 -3.3,0 -5.2,0 0,11.7 0,23.1 0,34.5 z m 55,10 c 0,-9.9 0,-19.6 0,-29.2 -0.2,0 -0.3,0 -0.5,0 0,9.5 0,18.9 0,28.5 -3.1,0.2 -5.8,0.3 -8.5,0.4 0,0.1 0,0.2 0,0.2 2.8,0.1 5.7,0.1 9,0.1 z"
     id="path39"
     style="fill:#075f9c;fill-opacity:1"
     inkscape:connector-curvature="0" /><path
     d="m 773,239.8 c 0.3,-1.4 0.6,-2.6 1.1,-4.3 3.8,0 7.7,-0.3 11.6,0.2 1.1,0.1 2,2.2 3.5,4.2 2.3,0.2 5.7,0.4 9.1,0.6 6.1,0.4 10.9,4.6 11.4,10.8 0.4,5 0.4,10.1 -0.2,15.1 -0.7,7 -4.8,10.5 -11.9,11.1 -3.1,0.3 -6.2,0.5 -9.6,0.8 -0.2,1.3 -0.3,2.4 -0.5,3.8 -4.5,0 -9,0 -13.7,0 -0.3,-1.2 -0.6,-2.4 -0.9,-3.8 -3.2,-0.3 -6.3,-0.5 -9.4,-0.8 -7.3,-0.7 -11.3,-4.3 -12,-11.5 -0.5,-4.9 -0.5,-9.8 -0.1,-14.7 0.6,-6.4 4.9,-10.3 11.3,-10.8 3.4,-0.3 6.7,-0.5 10.3,-0.7 z m 15.1,12 c 0,5 0,9.8 0,14.5 6.9,-0.8 8.2,-2.2 7.8,-8.4 -0.4,-4.9 -1.8,-6.1 -7.8,-6.1 z m -15,14.4 c 0,-5 0,-9.6 0,-14.2 -6,-0.5 -7.5,0.7 -7.8,5.6 -0.4,6.8 1.1,8.4 7.8,8.6 z"
     id="path41"
     style="fill:#075f9c;fill-opacity:1"
     inkscape:connector-curvature="0" /><path
     d="m 671.8,260.2 c 3.2,-6.7 6.6,-13.3 9.5,-20.1 1.6,-3.7 3.6,-5.2 7.7,-4.8 3.7,0.4 7.6,0.1 11.7,0.1 0,15.7 0,31 0,46.6 -3.9,0 -8.1,0 -12.9,0 0,-7.7 0,-15.5 0,-23.3 -0.4,-0.1 -0.8,-0.2 -1.2,-0.2 -2.8,6.2 -5.9,12.3 -8.4,18.6 -1.6,4 -3.8,5.7 -8.1,5.2 -3.9,-0.4 -7.9,-0.1 -12.1,-0.1 0,-15.4 0,-30.7 0,-46.4 4.1,0 8.1,0 12.8,0 0,8 0,16.1 0,24.2 0.3,0.1 0.6,0.2 1,0.2 z m 17.6,20.5 c 0,-6.2 0,-11.9 0,-17.7 -0.1,0 -0.2,0 -0.3,0 0,6 0,12 0,18.1 1.6,0 2.9,0 4.1,0 0,0 0,-0.1 0,-0.1 -1.1,-0.1 -2.1,-0.1 -3.8,-0.3 z"
     id="path43"
     style="fill:#075f9c;fill-opacity:1"
     inkscape:connector-curvature="0" /><path
     d="m 650.9,282 c -4.3,0 -8.3,0 -13,0 0,-7.9 0,-15.6 0,-23.2 -0.4,-0.1 -0.8,-0.2 -1.2,-0.3 -2.2,4.7 -4.9,9.2 -6.3,14.1 -2.3,7.9 -6.9,11.3 -15.1,9.8 -2.2,-0.4 -4.6,-0.1 -7.3,-0.1 0,-15.5 0,-30.9 0,-46.6 4.2,0 8.1,0 12.7,0 0,8.2 0,16.2 0,24.3 0.4,0.1 0.8,0.2 1.2,0.3 2.4,-5.1 5.4,-9.9 7.1,-15.2 2.5,-8 7.3,-10.9 15.3,-9.6 2.1,0.3 4.3,0.1 6.7,0.1 -0.1,15.4 -0.1,30.7 -0.1,46.4 z m -11.6,-27.7 c -0.1,0 -0.2,-0.1 -0.3,-0.1 0,8 0,16 0,24.1 0.1,0 0.2,0 0.3,0 0,-8.1 0,-16.1 0,-24 z"
     id="path45"
     style="fill:#075f9c;fill-opacity:1"
     inkscape:connector-curvature="0" /><path
     d="m 745.9,236.3 c 0,15.2 0,30.3 0,45.7 -4.6,0 -9.2,0 -14.2,0 0,-4.9 0,-9.9 0,-14.9 -2.7,-1.2 -4.2,-0.6 -5.2,1.8 -0.7,1.6 -1.5,3.2 -2.3,4.8 -1.5,2.9 -2.6,7.5 -4.8,8.2 -4.5,1.3 -9.6,0.4 -15.5,0.4 3.4,-6.2 6.3,-11.5 9.4,-17.2 -7.7,-4.8 -7.8,-12.4 -6.6,-20.2 0.7,-4.7 4,-8.3 8.6,-8.5 10.1,-0.4 20.2,-0.1 30.6,-0.1 z M 732,247 c -3.8,0 -7.5,0 -11.1,0 0,2.8 0,5.1 0,7.6 3.8,0 7.4,0 11.1,0 0,-2.7 0,-5.1 0,-7.6 z m 12.8,-7.7 c 0,0 0,0 0,0 0,13.1 0,26.2 0,39.3 0,0 0,0 0,0 0,-13 0,-26.2 0,-39.3 z"
     id="path47"
     style="fill:#075f9c;fill-opacity:1"
     inkscape:connector-curvature="0" /><path
     d="m 559.6,235.7 c 4.5,0 8.5,0 13.2,0 0,5.4 0,10.6 0,16.2 5,0 9.4,0 14.6,0 0,-5.3 0,-10.6 0,-16.2 4.8,0 8.8,0 13.3,0 0,15.5 0,30.8 0,46.4 -4.1,0 -8.4,0 -13.3,0 0,-5.5 0,-11.1 0,-17 -4.9,0 -9.4,0 -14.2,0 0,5.7 0,11.2 0,17 -4.7,0 -9,0 -13.6,0 0,-15.3 0,-30.6 0,-46.4 z"
     id="path49"
     style="fill:#075f9c;fill-opacity:1"
     inkscape:connector-curvature="0" /><path
     d="m 773.2,355 c 0,-3.6 0,-7.2 0,-11 2.7,-0.2 5.3,-0.4 8.9,-0.6 -5.2,-11.9 -10.2,-23.1 -15.5,-35.1 5.2,0 9.7,-0.2 14.1,0.1 0.9,0.1 2.1,1.6 2.5,2.6 2.1,4.7 3.9,9.5 6.3,15.3 2.3,-5.6 4.3,-10.3 6,-15.1 0.8,-2.3 2.1,-3.2 4.5,-3.1 3.9,0.2 7.9,0 11.6,0 0.3,0.7 0.5,1.1 0.4,1.2 -6.3,12.8 -12.4,25.8 -19,38.4 -3.9,7.6 -10.6,9.7 -19.8,7.3 z"
     id="path51"
     style="fill:#075f9c;fill-opacity:1"
     inkscape:connector-curvature="0" /><path
     d="m 732,355 c 0,-15.7 0,-30.9 0,-46.5 11.1,0 22.1,0 33.5,0 0,3.5 0,7 0,11.1 -6.5,0 -13.1,0 -20,0 0,12.1 0,23.6 0,35.4 -4.6,0 -8.7,0 -13.5,0 z m 12.1,-0.8 c 0,-11.8 0,-23.2 0,-34.5 -0.2,0 -0.4,0 -0.6,0 0,11.3 0,22.5 0,33.9 -2.7,0.1 -5,0.2 -7.2,0.3 0,0.1 0,0.2 0,0.3 2.4,0 5,0 7.8,0 z"
     id="path53"
     style="fill:#075f9c;fill-opacity:1"
     inkscape:connector-curvature="0" /><path
     d="m 744.8,239.3 c 0,13.1 0,26.2 0,39.3 0,0 0,0 0,0 0,-13 0,-26.2 0,-39.3 0,0 0,0 0,0 z"
     id="path69"
     inkscape:connector-curvature="0"
     style="fill:#ffffff" /></svg>