<?xml version="1.0" encoding="UTF-8" standalone="no"?>
<!-- Created with Inkscape (http://www.inkscape.org/) -->

<svg
   xmlns:osb="http://www.openswatchbook.org/uri/2009/osb"
   xmlns:dc="http://purl.org/dc/elements/1.1/"
   xmlns:cc="http://creativecommons.org/ns#"
   xmlns:rdf="http://www.w3.org/1999/02/22-rdf-syntax-ns#"
   xmlns:svg="http://www.w3.org/2000/svg"
   xmlns="http://www.w3.org/2000/svg"
   xmlns:sodipodi="http://sodipodi.sourceforge.net/DTD/sodipodi-0.dtd"
   xmlns:inkscape="http://www.inkscape.org/namespaces/inkscape"
   width="500"
   height="500"
   viewBox="0 0 500.00002 499.99999"
   id="svg2"
   version="1.1"
   inkscape:version="0.91 r13725"
   sodipodi:docname="stacked.svg">
  <defs
     id="defs4">
    <pattern
       inkscape:isstock="true"
       inkscape:stockid="Wavy"
       id="Wavy"
       height="5.1805778"
       width="30.066020"
       patternUnits="userSpaceOnUse"
       inkscape:collect="always">
      <path
         id="path5520"
         d="M 7.597,0.061 C 5.079,-0.187 2.656,0.302 -0.01,1.788 L -0.01,3.061 C 2.773,1.431 5.173,1.052 7.472,1.280 C 9.770,1.508 11.969,2.361 14.253,3.218 C 18.820,4.931 23.804,6.676 30.066,3.061 L 30.062,1.788 C 23.622,5.497 19.246,3.770 14.691,2.061 C 12.413,1.207 10.115,0.311 7.597,0.061 z "
         style="fill:black;stroke:none;" />
    </pattern>
    <linearGradient
       id="linearGradient5625"
       osb:paint="solid">
      <stop
         style="stop-color:#ff7f2a;stop-opacity:1;"
         offset="0"
         id="stop5627" />
    </linearGradient>
  </defs>
  <sodipodi:namedview
     id="base"
     pagecolor="#ffffff"
     bordercolor="#666666"
     borderopacity="1.0"
     inkscape:pageopacity="0.0"
     inkscape:pageshadow="2"
     inkscape:zoom="1"
     inkscape:cx="186.97614"
     inkscape:cy="209.51995"
     inkscape:document-units="px"
     inkscape:current-layer="layer1"
     showgrid="true"
     units="px"
     inkscape:object-nodes="true"
     inkscape:snap-smooth-nodes="true"
     inkscape:snap-global="true"
     inkscape:snap-text-baseline="false"
     inkscape:snap-bbox="true"
     inkscape:bbox-paths="true"
     inkscape:bbox-nodes="true"
     inkscape:snap-bbox-edge-midpoints="false"
     inkscape:window-width="1335"
     inkscape:window-height="694"
     inkscape:window-x="-3"
     inkscape:window-y="-4"
     inkscape:window-maximized="1">
    <inkscape:grid
       type="xygrid"
       id="grid4136"
       units="px"
       spacingx="10"
       spacingy="9.9999998" />
  </sodipodi:namedview>
  <metadata
     id="metadata7">
    <rdf:RDF>
      <cc:Work
         rdf:about="">
        <dc:format>image/svg+xml</dc:format>
        <dc:type
           rdf:resource="http://purl.org/dc/dcmitype/StillImage" />
        <dc:title></dc:title>
      </cc:Work>
    </rdf:RDF>
  </metadata>
  <g
     inkscape:label="Layer 1"
     inkscape:groupmode="layer"
     id="layer1"
     transform="translate(0,-552.36223)">
    <rect
       style="opacity:0.98999999;fill:#d5f6ff;fill-opacity:1;fill-rule:evenodd;stroke:none;stroke-width:1;stroke-linecap:round;stroke-linejoin:round;stroke-miterlimit:4;stroke-dasharray:none;stroke-dashoffset:0;stroke-opacity:1"
       id="rect5661"
       width="499.99997"
       height="500"
       x="0"
       y="552.36218" />
    <path
       style="opacity:0.98999999;fill:#ffffff;fill-opacity:1;fill-rule:evenodd;stroke:#000000;stroke-width:1.5;stroke-linecap:round;stroke-linejoin:round;stroke-miterlimit:4;stroke-dasharray:none;stroke-dashoffset:0;stroke-opacity:1"
       d="M 2.3091787e-6,932.3622 A 1769.2604,1769.2604 0 0 1 500.0019,1038.3049 l -0.002,14.0573 -500.00001,0 z"
       id="path5657" />
    <path
       style="fill:#cccccc;fill-rule:evenodd;stroke:#000000;stroke-width:1px;stroke-linecap:butt;stroke-linejoin:miter;stroke-opacity:1"
       d="m 140,992.36224 20,-20 40,0 -20,20 z"
       id="path5653"
       inkscape:connector-curvature="0"
       sodipodi:nodetypes="ccccc" />
    <path
       style="fill:none;fill-rule:evenodd;stroke:#000000;stroke-width:1.50000012;stroke-linecap:butt;stroke-linejoin:miter;stroke-miterlimit:4;stroke-dasharray:none;stroke-opacity:1"
       d="M 337.62515,671.07174 169.99999,982.36228 418.08149,730.45841"
       id="path4227"
       inkscape:connector-curvature="0" />
    <path
       style="fill:#ffffff;fill-rule:evenodd;stroke:none;stroke-width:1.50000012;stroke-linecap:butt;stroke-linejoin:miter;stroke-miterlimit:4;stroke-dasharray:none;stroke-opacity:1;fill-opacity:1"
       d="m 418.08149,730.45844 c -8.1976,11.10599 -32.84616,6.82233 -55.06097,-9.56901 -22.21496,-16.39115 -33.58786,-38.68648 -25.4056,-49.80378 8.1823,-11.11727 32.82299,-6.84901 55.04345,9.53468 22.22046,16.38366 33.6105,38.68175 25.44355,49.81035"
       id="path5670"
       inkscape:connector-curvature="0" />
    <path
       inkscape:connector-curvature="0"
       id="path5623"
       d="m 418.08149,730.45844 c -8.1976,11.10599 -32.84616,6.82233 -55.06097,-9.56901 -22.21496,-16.39115 -33.58786,-38.68648 -25.4056,-49.80378 8.1823,-11.11727 32.82299,-6.84901 55.04345,9.53468 22.22046,16.38366 33.6105,38.68175 25.44355,49.81035"
       style="fill:url(#Wavy);fill-rule:evenodd;stroke:#000000;stroke-width:1.50000012;stroke-linecap:butt;stroke-linejoin:miter;stroke-miterlimit:4;stroke-dasharray:none;stroke-opacity:1;fill-opacity:1.0" />
    <path
       style="fill:none;fill-rule:evenodd;stroke:#000000;stroke-width:1.50000012;stroke-linecap:butt;stroke-linejoin:miter;stroke-miterlimit:4;stroke-dasharray:none;stroke-opacity:1"
       d="M 182.59528,629.03332 169.99999,982.36228 281.02357,646.69317"
       id="path4223"
       inkscape:connector-curvature="0" />
    <path
       inkscape:connector-curvature="0"
       id="path5668"
       d="m 281.02359,646.6932 c -2.43772,13.58679 -26.43772,20.65096 -53.61215,15.7802 -27.17447,-4.87052 -47.23816,-19.83291 -44.81918,-33.42307 2.41902,-13.59016 26.40513,-20.66462 53.58123,-15.80324 27.17611,4.86137 47.25638,19.81866 44.85614,33.41217"
       style="fill:#ffffff;fill-rule:evenodd;stroke:none;stroke-width:1.50000012;stroke-linecap:butt;stroke-linejoin:miter;stroke-miterlimit:4;stroke-dasharray:none;stroke-opacity:1;fill-opacity:1" />
    <path
       style="fill:url(#Wavy);fill-rule:evenodd;stroke:#000000;stroke-width:1.50000012;stroke-linecap:butt;stroke-linejoin:miter;stroke-miterlimit:4;stroke-dasharray:none;stroke-opacity:1;fill-opacity:1.0"
       d="m 281.02359,646.6932 c -2.43772,13.58679 -26.43772,20.65096 -53.61215,15.7802 -27.17447,-4.87052 -47.23816,-19.83291 -44.81918,-33.42307 2.41902,-13.59016 26.40513,-20.66462 53.58123,-15.80324 27.17611,4.86137 47.25638,19.81866 44.85614,33.41217"
       id="path4178"
       inkscape:connector-curvature="0" />
    <path
       style="fill:none;fill-rule:evenodd;stroke:#000000;stroke-width:1.50000012;stroke-linecap:butt;stroke-linejoin:miter;stroke-miterlimit:4;stroke-dasharray:none;stroke-opacity:1"
       d="M 28.4463,658.38304 169.99999,982.36228 124.82262,631.70719"
       id="path4231"
       inkscape:connector-curvature="0" />
    <path
       inkscape:connector-curvature="0"
       id="path5664"
       d="m 124.82265,631.70721 c 3.68227,13.30355 -14.89676,30.05829 -41.502585,37.42741 -26.605762,7.36936 -51.16851,2.56353 -54.86913,-10.73494 -3.70058,-13.29848 14.861477,-30.05651 41.464756,-37.43481 26.603268,-7.37832 51.178759,-2.58425 54.897719,10.70913"
       style="fill:#ffffff;fill-rule:evenodd;stroke:none;stroke-width:1.50000012;stroke-linecap:butt;stroke-linejoin:miter;stroke-miterlimit:4;stroke-dasharray:none;stroke-opacity:1;fill-opacity:1" />
    <path
       style="fill:url(#Wavy);fill-rule:evenodd;stroke:#000000;stroke-width:1.50000012;stroke-linecap:butt;stroke-linejoin:miter;stroke-miterlimit:4;stroke-dasharray:none;stroke-opacity:1;fill-opacity:1.0"
       d="m 124.82265,631.70721 c 3.68227,13.30355 -14.89676,30.05829 -41.502585,37.42741 -26.605762,7.36936 -51.16851,2.56353 -54.86913,-10.73494 -3.70058,-13.29848 14.861477,-30.05651 41.464756,-37.43481 26.603268,-7.37832 51.178759,-2.58425 54.897719,10.70913"
       id="path4180"
       inkscape:connector-curvature="0" />
    <path
       sodipodi:nodetypes="ccccc"
       inkscape:connector-curvature="0"
       id="path4191"
       d="m 76.291143,655.58398 c -2.000004,-10 -4e-6,-8 -10.000001,-10 9.999997,-2 7.999997,0 9.999995,-9.99999 2.000001,9.99999 2e-6,7.99999 10.000003,9.99999 -10.000001,2 -8.000002,0 -9.999997,10 z"
       style="opacity:0.98999999;fill:#ff0000;fill-opacity:1;fill-rule:evenodd;stroke:#000000;stroke-width:1.00000006;stroke-linecap:round;stroke-linejoin:round;stroke-miterlimit:4;stroke-dasharray:none;stroke-dashoffset:0;stroke-opacity:1" />
    <path
       sodipodi:nodetypes="ccccc"
       inkscape:connector-curvature="0"
       id="path4193"
       d="m 232.14287,648.43369 c -2.00001,-10 -10e-6,-8 -10,-10 9.99999,-2 7.99999,0 9.99999,-9.99999 2,9.99999 0,7.99999 10.00001,9.99999 -10.00001,2 -8.00001,0 -10,10 z"
       style="opacity:0.98999999;fill:#ff0000;fill-opacity:1;fill-rule:evenodd;stroke:#000000;stroke-width:1.00000006;stroke-linecap:round;stroke-linejoin:round;stroke-miterlimit:4;stroke-dasharray:none;stroke-dashoffset:0;stroke-opacity:1" />
    <path
       sodipodi:nodetypes="ccccc"
       inkscape:connector-curvature="0"
       id="path4195"
       d="m 377.70065,711.05774 c -2.00001,-10 -10e-6,-8 -10,-10 9.99999,-2 7.99999,0 9.99999,-9.99999 2,9.99999 0,7.99999 10.00001,9.99999 -10.00001,2 -8.00001,0 -10,10 z"
       style="opacity:0.98999999;fill:#ff0000;fill-opacity:1;fill-rule:evenodd;stroke:#000000;stroke-width:1.00000006;stroke-linecap:round;stroke-linejoin:round;stroke-miterlimit:4;stroke-dasharray:none;stroke-dashoffset:0;stroke-opacity:1" />
    <path
       sodipodi:nodetypes="ccccc"
       inkscape:connector-curvature="0"
       id="path4197"
       d="m 298.57144,685.2194 c -2.00001,-10 -10e-6,-8 -10,-10 9.99999,-2 7.99999,0 9.99999,-9.99999 2,9.99999 0,7.99999 10.00001,9.99999 -10.00001,2 -8.00001,0 -10,10 z"
       style="opacity:0.98999999;fill:none;fill-opacity:1;fill-rule:evenodd;stroke:#000000;stroke-width:1.00000006;stroke-linecap:round;stroke-linejoin:round;stroke-miterlimit:4;stroke-dasharray:none;stroke-dashoffset:0;stroke-opacity:1" />
    <path
       style="opacity:0.98999999;fill:none;fill-opacity:1;fill-rule:evenodd;stroke:#000000;stroke-width:1.00000006;stroke-linecap:round;stroke-linejoin:round;stroke-miterlimit:4;stroke-dasharray:none;stroke-dashoffset:0;stroke-opacity:1"
       d="m 152.85715,610.93368 c -2.00001,-10 -1e-5,-8 -10,-10 9.99999,-2 7.99999,0 9.99999,-9.99999 2,9.99999 0,7.99999 10.00001,9.99999 -10.00001,2 -8.00001,0 -10,10 z"
       id="path4199"
       inkscape:connector-curvature="0"
       sodipodi:nodetypes="ccccc" />
    <path
       sodipodi:nodetypes="ccccc"
       inkscape:connector-curvature="0"
       id="path4201"
       d="m 63.571426,770.2194 c -2.000003,-10 -3e-6,-8 -9.999999,-10 9.999996,-2 7.999996,0 9.999994,-9.99999 2.000001,9.99999 2e-6,7.99999 10.000005,9.99999 -10.000003,2 -8.000004,0 -10,10 z"
       style="opacity:0.98999999;fill:none;fill-opacity:1;fill-rule:evenodd;stroke:#000000;stroke-width:1.00000006;stroke-linecap:round;stroke-linejoin:round;stroke-miterlimit:4;stroke-dasharray:none;stroke-dashoffset:0;stroke-opacity:1" />
    <path
       style="opacity:0.98999999;fill:none;fill-opacity:1;fill-rule:evenodd;stroke:#000000;stroke-width:1.00000006;stroke-linecap:round;stroke-linejoin:round;stroke-miterlimit:4;stroke-dasharray:none;stroke-dashoffset:0;stroke-opacity:1"
       d="m 447.14288,635.2194 c -2.00001,-10 -10e-6,-8 -10,-10 9.99999,-2 7.99999,0 9.99999,-9.99999 2,9.99999 0,7.99999 10,9.99999 -10,2 -8,0 -9.99999,10 z"
       id="path4203"
       inkscape:connector-curvature="0"
       sodipodi:nodetypes="ccccc" />
    <path
       sodipodi:nodetypes="ccccc"
       inkscape:connector-curvature="0"
       id="path4205"
       d="m 435.7143,802.36226 c -2,-10 0,-8 -10,-10 10,-2 8,0 9.99999,-9.99999 2,9.99999 10e-6,7.99999 10.00001,9.99999 -10,2 -8.00001,0 -10,10 z"
       style="opacity:0.98999999;fill:none;fill-opacity:1;fill-rule:evenodd;stroke:#000000;stroke-width:1.00000006;stroke-linecap:round;stroke-linejoin:round;stroke-miterlimit:4;stroke-dasharray:none;stroke-dashoffset:0;stroke-opacity:1" />
    <path
       style="opacity:0.98999999;fill:none;fill-opacity:1;fill-rule:evenodd;stroke:#000000;stroke-width:1.00000006;stroke-linecap:round;stroke-linejoin:round;stroke-miterlimit:4;stroke-dasharray:none;stroke-dashoffset:0;stroke-opacity:1"
       d="m 44.285711,596.64797 c -2.000004,-10 -4e-6,-8 -10,-10 9.999996,-2 7.999996,0 9.999994,-9.99999 2.000002,9.99999 2e-6,7.99999 10.000005,9.99999 -10.000003,2 -8.000003,0 -9.999999,10 z"
       id="path4207"
       inkscape:connector-curvature="0"
       sodipodi:nodetypes="ccccc" />
    <path
       sodipodi:nodetypes="ccccc"
       inkscape:connector-curvature="0"
       id="path4209"
       d="m 372.85716,896.648 c -2,-10 0,-8 -10,-10 10,-2 8,0 10,-10 2,10 0,8 10,10 -10,2 -8,0 -10,10 z"
       style="opacity:0.98999999;fill:none;fill-opacity:1;fill-rule:evenodd;stroke:#000000;stroke-width:1.00000006;stroke-linecap:round;stroke-linejoin:round;stroke-miterlimit:4;stroke-dasharray:none;stroke-dashoffset:0;stroke-opacity:1" />
    <path
       style="opacity:0.98999999;fill:none;fill-opacity:1;fill-rule:evenodd;stroke:#000000;stroke-width:1.00000006;stroke-linecap:round;stroke-linejoin:round;stroke-miterlimit:4;stroke-dasharray:none;stroke-dashoffset:0;stroke-opacity:1"
       d="m 54.285712,876.64798 c -2.000004,-10 -4e-6,-8 -10,-10 9.999996,-2 7.999996,0 9.999994,-9.99999 2.000002,9.99999 2e-6,7.99999 10.000005,9.99999 -10.000003,2 -8.000003,0 -9.999999,10 z"
       id="path4211"
       inkscape:connector-curvature="0"
       sodipodi:nodetypes="ccccc" />
    <path
       sodipodi:nodetypes="ccccc"
       inkscape:connector-curvature="0"
       id="path4213"
       d="m 321.42859,822.36227 c -2.00001,-10 -10e-6,-8 -10,-10 9.99999,-2 7.99999,0 9.99999,-9.99999 2,9.99999 0,7.99999 10,9.99999 -10,2 -8,0 -9.99999,10 z"
       style="opacity:0.98999999;fill:none;fill-opacity:1;fill-rule:evenodd;stroke:#000000;stroke-width:1.00000006;stroke-linecap:round;stroke-linejoin:round;stroke-miterlimit:4;stroke-dasharray:none;stroke-dashoffset:0;stroke-opacity:1" />
    <path
       style="opacity:0.98999999;fill:none;fill-opacity:1;fill-rule:evenodd;stroke:#000000;stroke-width:1.00000006;stroke-linecap:round;stroke-linejoin:round;stroke-miterlimit:4;stroke-dasharray:none;stroke-dashoffset:0;stroke-opacity:1"
       d="m 342.85716,595.2194 c -2.00001,-10 -1e-5,-8 -10.00001,-10 10,-2 8,0 10,-9.99999 2,9.99999 0,7.99999 10,9.99999 -10,2 -8,0 -9.99999,10 z"
       id="path4215"
       inkscape:connector-curvature="0"
       sodipodi:nodetypes="ccccc" />
    <path
       sodipodi:nodetypes="ccccc"
       inkscape:connector-curvature="0"
       id="path4217"
       d="m 232.85715,782.36226 c -2,-10 0,-8 -10,-10 10,-2 8,0 9.99999,-9.99999 2,9.99999 1e-5,7.99999 10.00001,9.99999 -10,2 -8.00001,0 -10,10 z"
       style="opacity:0.98999999;fill:none;fill-opacity:1;fill-rule:evenodd;stroke:#000000;stroke-width:1.00000006;stroke-linecap:round;stroke-linejoin:round;stroke-miterlimit:4;stroke-dasharray:none;stroke-dashoffset:0;stroke-opacity:1" />
    <path
       style="opacity:0.98999999;fill:none;fill-opacity:1;fill-rule:evenodd;stroke:#000000;stroke-width:1.00000006;stroke-linecap:round;stroke-linejoin:round;stroke-miterlimit:4;stroke-dasharray:none;stroke-dashoffset:0;stroke-opacity:1"
       d="m 130,725.2194 c -2,-10 0,-8 -10,-10 10,-2 8,0 10,-9.99999 2,9.99999 0,7.99999 10,9.99999 -10,2 -8,0 -10,10 z"
       id="path4219"
       inkscape:connector-curvature="0"
       sodipodi:nodetypes="ccccc" />
    <text
       xml:space="preserve"
       style="font-style:normal;font-variant:normal;font-weight:normal;font-stretch:normal;font-size:37.5px;line-height:125%;font-family:Arial;-inkscape-font-specification:'Arial, Normal';text-align:start;letter-spacing:0px;word-spacing:0px;writing-mode:lr-tb;text-anchor:start;fill:#000000;fill-opacity:1;stroke:none;stroke-width:1px;stroke-linecap:butt;stroke-linejoin:miter;stroke-opacity:1"
       x="59.408257"
       y="692.95404"
       id="text4233"
       sodipodi:linespacing="125%"><tspan
         sodipodi:role="line"
         id="tspan4235"
         x="59.408257"
         y="692.95404"
         style="font-size:27.50000191px">src<tspan
   style="font-size:65.00000954%;baseline-shift:sub"
   id="tspan4274">1</tspan></tspan></text>
    <text
       xml:space="preserve"
       style="font-style:normal;font-variant:normal;font-weight:normal;font-stretch:normal;font-size:37.5px;line-height:125%;font-family:Arial;-inkscape-font-specification:'Arial, Normal';text-align:start;letter-spacing:0px;word-spacing:0px;writing-mode:lr-tb;text-anchor:start;fill:#000000;fill-opacity:1;stroke:none;stroke-width:1px;stroke-linecap:butt;stroke-linejoin:miter;stroke-opacity:1"
       x="329.99997"
       y="740.93365"
       id="text4239"
       sodipodi:linespacing="125%"><tspan
         sodipodi:role="line"
         id="tspan4241"
         x="329.99997"
         y="740.93365"
         style="font-size:27.50000191px">src<tspan
   style="font-style:italic;font-variant:normal;font-weight:normal;font-stretch:normal;font-size:65.00000954%;font-family:Arial;-inkscape-font-specification:'Arial Italic';baseline-shift:sub"
   id="tspan4243">n</tspan></tspan></text>
    <text
       xml:space="preserve"
       style="font-style:normal;font-variant:normal;font-weight:normal;font-stretch:normal;font-size:37.5px;line-height:125%;font-family:Arial;-inkscape-font-specification:'Arial, Normal';text-align:start;letter-spacing:0px;word-spacing:0px;writing-mode:lr-tb;text-anchor:start;fill:#000000;fill-opacity:1;stroke:none;stroke-width:1px;stroke-linecap:butt;stroke-linejoin:miter;stroke-opacity:1"
       x="201.84697"
       y="686.64795"
       id="text4245"
       sodipodi:linespacing="125%"><tspan
         sodipodi:role="line"
         id="tspan4247"
         x="201.84697"
         y="686.64795"
         style="font-size:27.50000164px">src<tspan
   style="font-style:italic;font-variant:normal;font-weight:normal;font-stretch:normal;font-family:Arial;-inkscape-font-specification:'Arial Italic';baseline-shift:sub;font-size:65.00000387%"
   id="tspan4249">i</tspan></tspan></text>
    <g
       id="g4265"
       transform="translate(70.000009,-5.6653212e-6)">
      <rect
         ry="0"
         y="942.36224"
         x="290"
         height="90"
         width="110.00001"
         id="rect4251"
         style="opacity:0.98999999;fill:#ffffff;fill-opacity:1;fill-rule:evenodd;stroke:#000000;stroke-width:1.50000012;stroke-linecap:round;stroke-linejoin:round;stroke-miterlimit:4;stroke-dasharray:none;stroke-dashoffset:0;stroke-opacity:1" />
      <rect
         style="opacity:0.98999999;fill:#ffffff;fill-opacity:1;fill-rule:evenodd;stroke:#000000;stroke-width:1;stroke-linecap:round;stroke-linejoin:round;stroke-miterlimit:4;stroke-dasharray:none;stroke-dashoffset:0;stroke-opacity:1"
         id="rect5649"
         width="30.000006"
         height="29.999996"
         x="300"
         y="952.36224" />
      <rect
         y="952.36224"
         x="300"
         height="29.999996"
         width="30.000006"
         id="rect4253"
         style="opacity:0.98999999;fill:url(#Wavy);fill-opacity:1;fill-rule:evenodd;stroke:#000000;stroke-width:1;stroke-linecap:round;stroke-linejoin:round;stroke-miterlimit:4;stroke-dasharray:none;stroke-dashoffset:0;stroke-opacity:1" />
      <rect
         y="992.36224"
         x="300"
         height="30"
         width="30.000006"
         id="rect4255"
         style="opacity:0.98999999;fill:#d5f6ff;fill-opacity:1;fill-rule:evenodd;stroke:#000000;stroke-width:1;stroke-linecap:round;stroke-linejoin:round;stroke-miterlimit:4;stroke-dasharray:none;stroke-dashoffset:0;stroke-opacity:1" />
      <text
         sodipodi:linespacing="125%"
         id="text4257"
         y="974.69238"
         x="339.15405"
         style="font-style:normal;font-variant:normal;font-weight:normal;font-stretch:normal;font-size:37.5px;line-height:125%;font-family:Arial;-inkscape-font-specification:'Arial, Normal';text-align:start;letter-spacing:0px;word-spacing:0px;writing-mode:lr-tb;text-anchor:start;fill:#000000;fill-opacity:1;stroke:none;stroke-width:1px;stroke-linecap:butt;stroke-linejoin:miter;stroke-opacity:1"
         xml:space="preserve"><tspan
           style="font-size:27.50000191px"
           y="974.69238"
           x="339.15405"
           id="tspan4259"
           sodipodi:role="line">Ω<tspan
   style="font-size:65.00000954%;baseline-shift:super"
   id="tspan5710">src</tspan></tspan></text>
      <text
         sodipodi:linespacing="125%"
         id="text4261"
         y="1014.5111"
         x="338.20068"
         style="font-style:normal;font-variant:normal;font-weight:normal;font-stretch:normal;font-size:37.5px;line-height:125%;font-family:Arial;-inkscape-font-specification:'Arial, Normal';text-align:start;letter-spacing:0px;word-spacing:0px;writing-mode:lr-tb;text-anchor:start;fill:#000000;fill-opacity:1;stroke:none;stroke-width:1px;stroke-linecap:butt;stroke-linejoin:miter;stroke-opacity:1"
         xml:space="preserve"><tspan
           style="font-size:27.50000191px"
           y="1014.5111"
           x="338.20068"
           id="tspan4263"
           sodipodi:role="line">bg</tspan></text>
    </g>
  </g>
</svg>
